<svg xmlns="http://www.w3.org/2000/svg" viewBox="0 0 64 64" style="enable-background:new 0 0 64 64" xml:space="preserve"><path d="M47.773 1H16.227a4.445 4.445 0 0 0-4.44 4.44v53.12a4.445 4.445 0 0 0 4.44 4.44h31.546a4.445 4.445 0 0 0 4.44-4.44V5.44A4.445 4.445 0 0 0 47.773 1zM16.227 3h31.546a2.442 2.442 0 0 1 2.44 2.44v.379h-10.86a.998.998 0 0 0-.829.44l-.922 1.364H26.399L25.48 6.26a1 1 0 0 0-.83-.441H13.789v-.38A2.442 2.442 0 0 1 16.228 3zm33.985 52.673H13.788V7.819h10.331l.92 1.363a1 1 0 0 0 .829.441h12.264a.998.998 0 0 0 .828-.44l.923-1.364h10.33v47.854zM47.772 61H16.228a2.442 2.442 0 0 1-2.44-2.44v-.887h36.425v.887a2.442 2.442 0 0 1-2.44 2.44z"/><path d="M36.08 14.706c-2.642 0-4.95 1.606-6.09 3.933-.923-1.243-2.348-2.059-3.956-2.059-2.422 0-4.46 1.82-4.929 4.22h-1.712a1 1 0 0 0-1 1.016c.06 3.933 1.97 7.515 5.089 9.873h-.176a1 1 0 0 0 0 2h17.311a1 1 0 0 0 0-2h-.175c3.118-2.358 5.028-5.94 5.089-9.873a1 1 0 0 0-1-1.015h-1.694c-.509-3.438-3.359-6.095-6.758-6.095zM26.033 18.58c1.325 0 2.462.933 2.87 2.22H23.16c.408-1.287 1.547-2.22 2.874-2.22zm10.329 13.11H27.56c-3.958-1.53-6.653-4.939-7.103-8.89h23.007c-.449 3.951-3.144 7.36-7.102 8.89zm-5.02-10.89c.474-2.332 2.429-4.094 4.736-4.094s4.262 1.762 4.736 4.095h-9.473zM19.38 39.058h16.087a1 1 0 0 0 0-2H19.38a1 1 0 0 0 0 2zM19.394 44.554h16.09a1 1 0 0 0 0-2h-16.09a1 1 0 0 0 0 2zM35.498 48.05h-16.09a1 1 0 0 0 0 2h16.09a1 1 0 0 0 0-2zM44.53 37.058h-3.733a1 1 0 0 0 0 2h3.734a1 1 0 0 0 0-2zM44.527 42.554h-3.733a1 1 0 0 0 0 2h3.733a1 1 0 0 0 0-2zM44.524 48.05H40.79a1 1 0 0 0 0 2h3.734a1 1 0 0 0 0-2z"/></svg>